<?xml version="1.0" encoding="utf-8"?>
<svg width="752pt" height="752pt" version="1.1" viewBox="14.778 0 353.735 286.109" xmlns="http://www.w3.org/2000/svg" xmlns:bx="https://boxy-svg.com">
  <defs>
    <bx:grid x="0" y="0" width="103.734" height="103.734"/>
  </defs>
  <path d="M 61.182 126.421 C 61.133 126.479 61.025 126.47 60.981 126.538 L 60.981 126.563 C 60.448 127.252 60.135 128.094 60.135 128.999 L 60.135 164.838 C 60.135 165.46 60.277 166.071 60.556 166.619 L 71.592 188.736 C 72.262 190.096 73.657 190.962 75.173 190.962 L 98.098 190.962 C 99.571 190.962 100.916 190.16 101.615 188.863 L 113.156 167.611 L 113.498 167.382 L 164.029 304.367 C 164.612 305.932 166.113 306.974 167.782 306.974 L 190.358 306.974 C 192.565 306.974 194.36 305.179 194.36 302.973 L 194.36 292.494 C 194.37 292.381 194.482 292.303 194.482 292.195 L 194.482 237.791 L 209.966 237.791 L 209.966 292.195 C 209.966 292.464 210.2 292.616 210.244 292.866 L 210.244 302.973 C 210.244 305.179 212.04 306.974 214.246 306.974 L 236.833 306.974 C 236.955 306.974 237.033 306.881 237.146 306.881 C 237.239 306.881 237.302 306.974 237.395 306.974 C 239.602 306.974 241.397 305.179 241.397 302.973 L 241.397 302.161 L 304.794 130.397 C 304.887 130.123 304.735 129.873 304.765 129.594 C 306.858 123.327 308.566 116.87 309.534 110.139 C 316.183 108.372 321.182 102.551 321.182 95.193 C 321.182 88.07 316.271 82.312 309.715 80.477 C 303.287 32.084 265.222 -5.38 217.964 -12.302 L 217.964 -19.532 C 217.964 -21.748 216.168 -23.534 213.962 -23.534 L 190.475 -23.534 C 188.268 -23.534 186.473 -21.743 186.473 -19.532 L 186.473 -12.302 C 138.965 -5.355 100.866 32.304 94.795 80.369 C 88.01 82.028 82.848 87.913 82.848 95.413 C 82.848 102.722 88.039 108.588 94.858 110.216 C 95.127 112.178 95.48 114.12 95.871 116.048 L 63.045 125.152 C 62.306 125.362 61.695 125.851 61.181 126.424 L 61.182 126.421 Z M 309.942 89.177 C 311.865 90.557 313.191 92.744 313.191 95.41 C 313.191 97.925 311.86 100.053 309.942 101.413 L 309.942 89.177 Z M 94.094 101.383 C 92.186 100.009 90.875 97.832 90.875 95.19 C 90.875 92.666 92.191 90.532 94.094 89.168 L 94.094 101.383 Z M 83.116 182.955 L 77.642 182.955 L 75.876 179.418 L 83.116 179.418 L 83.116 182.955 Z M 83.116 171.414 L 71.889 171.414 L 70.607 168.846 L 83.117 168.846 L 83.116 171.414 Z M 95.723 182.955 L 91.124 182.955 L 91.124 179.418 L 97.65 179.418 L 95.723 182.955 Z M 90.121 160.838 L 90.121 154.346 L 98.462 160.847 L 90.121 160.842 L 90.121 160.838 Z M 101.96 171.458 C 101.911 171.458 101.902 171.409 101.848 171.409 L 91.124 171.414 L 91.124 168.846 L 103.384 168.846 L 101.96 171.458 Z M 110.262 159.888 L 94.784 147.815 L 169.051 114.304 C 169.815 115.61 170.759 116.818 171.679 118.036 L 110.262 159.888 Z M 229.057 140.643 C 229.047 140.443 229.228 140.276 229.179 140.081 L 224.536 122.009 L 227.966 122.009 C 229.106 122.009 230.192 121.524 230.95 120.668 C 235.172 115.943 238.004 110.277 239.541 104.256 L 259.04 110.713 C 259.441 110.845 259.882 110.919 260.302 110.919 L 277.846 110.919 C 272.64 135.556 255.591 156.523 232.193 166.375 L 229.238 166.375 L 229.238 141.074 C 229.248 140.902 229.086 140.809 229.057 140.643 Z M 202.033 67.731 C 187.033 67.731 174.822 79.937 174.822 94.941 C 174.822 101.947 177.508 108.448 182.249 113.488 L 182.126 114.001 L 178.477 114.001 C 174.064 108.522 171.662 101.815 171.662 94.936 C 171.662 78.068 185.374 64.346 202.248 64.346 C 219.121 64.346 232.838 78.068 232.838 94.921 C 232.809 101.854 230.431 108.57 226.097 114 L 222.487 114 L 222.237 113.012 C 226.709 108.017 229.248 101.682 229.248 94.945 C 229.248 79.937 217.027 67.731 202.033 67.731 Z M 219.546 102.607 L 217.418 94.291 C 216.968 92.52 215.373 91.282 213.539 91.282 L 190.952 91.282 C 189.127 91.282 187.513 92.52 187.072 94.305 L 184.837 103.189 C 183.604 100.631 182.821 97.881 182.821 94.941 C 182.821 84.355 191.441 75.735 202.028 75.735 C 212.614 75.735 221.234 84.355 221.234 94.941 C 221.234 97.632 220.608 100.205 219.546 102.607 Z M 220.143 137.073 L 215.173 137.073 L 205.056 127.161 C 203.51 125.664 201.083 125.62 199.518 127.107 L 188.912 137.077 L 184.562 137.077 L 194.068 99.296 L 210.426 99.296 L 220.143 137.073 Z M 183.423 174.4 L 186.49 174.4 L 186.49 189.428 L 183.423 189.428 L 183.423 174.4 Z M 183.423 166.391 L 183.423 145.076 L 190.487 145.076 C 191.51 145.076 192.493 144.685 193.227 143.99 L 202.189 135.566 L 210.741 143.936 C 211.489 144.67 212.492 145.076 213.539 145.076 L 221.229 145.076 L 221.229 166.376 L 217.981 166.376 L 217.981 163.828 C 217.981 161.621 216.185 159.826 213.979 159.826 L 190.492 159.826 C 188.286 159.826 186.49 161.621 186.49 163.828 L 186.49 166.391 L 183.423 166.386 L 183.423 166.391 Z M 217.981 174.385 L 221.23 174.385 L 221.23 189.434 L 217.981 189.434 L 217.981 174.385 Z M 221.298 237.782 L 221.298 243.506 L 217.981 246.583 L 217.981 237.782 L 221.298 237.782 Z M 175.63 140.541 C 175.601 140.741 175.41 140.869 175.41 141.074 L 175.41 166.396 L 172.362 166.396 C 161.741 161.944 152.231 154.953 144.512 146.25 L 180.063 122.014 L 180.112 122.014 L 175.543 140.1 C 175.494 140.251 175.65 140.388 175.631 140.54 L 175.63 140.541 Z M 175.415 174.399 L 175.415 189.456 L 168.067 189.456 C 151.365 183.419 136.693 172.975 125.281 159.34 L 137.843 150.789 C 146.664 160.974 157.705 169.076 170.063 174.109 C 170.547 174.31 171.061 174.408 171.575 174.408 L 175.415 174.403 L 175.415 174.399 Z M 260.944 102.916 L 248.953 98.943 L 259.77 98.943 C 261.976 98.943 263.771 97.153 263.771 94.941 C 263.771 92.725 261.976 90.94 259.77 90.94 L 250.778 90.94 L 260.547 87.652 L 278.971 87.652 L 278.971 102.92 L 260.944 102.916 Z M 178.825 29.402 L 225.241 29.402 C 227.447 29.402 229.243 27.612 229.243 25.4 L 229.243 22.46 C 253.795 31.672 272.542 53.123 277.895 79.654 L 262.617 79.654 C 255.719 52.317 230.656 32.577 202.254 32.577 C 173.84 32.577 148.788 52.302 141.89 79.654 L 126.592 79.649 C 131.895 53.329 150.519 31.966 174.824 22.641 L 174.824 25.4 C 174.824 27.611 176.62 29.401 178.826 29.401 L 178.825 29.402 Z M 182.822 21.394 L 182.822 20.337 C 189.098 18.683 195.536 17.514 202.249 17.514 C 208.804 17.514 215.101 18.63 221.235 20.2 L 221.235 21.394 L 182.822 21.394 Z M 202.249 9.511 C 161.185 9.511 125.648 39.534 118.378 79.649 L 114.851 79.649 C 122.179 37.474 159.031 5.994 202.248 5.994 C 245.504 5.994 282.288 37.46 289.607 79.649 L 286.07 79.649 C 278.79 39.485 243.46 9.511 202.248 9.511 L 202.249 9.511 Z M 125.091 87.657 L 143.515 87.657 L 153.289 90.944 L 145.295 90.944 C 143.089 90.944 141.294 92.735 141.294 94.946 C 141.294 97.157 143.089 98.948 145.295 98.948 L 155.089 98.948 L 143.128 102.92 L 125.096 102.92 L 125.091 87.657 Z M 149.738 81.297 C 155.853 57.625 177.588 40.58 202.25 40.58 C 226.853 40.58 248.573 57.579 254.719 81.159 L 239.754 86.188 C 235.767 69.125 220.519 56.342 202.251 56.342 C 183.94 56.342 168.647 69.189 164.705 86.316 L 149.738 81.297 Z M 152.458 249.867 L 139.606 215.011 L 152.458 215.011 L 152.458 249.867 Z M 186.365 298.96 L 170.569 298.96 L 159.4 268.667 C 160.011 267.963 160.461 267.092 160.461 266.089 L 160.461 211.013 C 160.461 208.807 158.666 207.011 156.46 207.011 L 136.642 207.011 L 122.166 167.762 C 134.205 181.004 149.126 191.269 166.043 197.236 C 166.464 197.393 166.919 197.471 167.374 197.471 L 167.393 197.471 L 175.416 197.471 L 175.416 233.252 C 175.416 233.301 175.465 233.315 175.465 233.364 C 175.455 233.521 175.294 233.633 175.294 233.785 L 175.294 245.267 C 175.294 246.377 175.744 247.424 176.556 248.192 L 184.907 256.029 L 176.287 265.755 C 175.646 266.489 175.289 267.428 175.289 268.411 L 175.289 291.449 C 175.289 293.655 177.084 295.45 179.291 295.45 L 186.36 295.45 L 186.365 298.96 Z M 186.492 287.434 L 183.293 287.434 L 183.293 269.92 L 186.482 266.325 L 186.487 287.434 L 186.492 287.434 Z M 186.492 246.511 L 183.302 243.522 L 183.302 237.779 L 186.492 237.779 L 186.492 246.511 Z M 198.37 229.247 L 183.419 229.247 L 183.419 197.468 L 190.459 197.458 C 190.469 197.458 190.469 197.468 190.488 197.468 L 198.369 197.468 L 198.37 229.247 Z M 194.495 189.43 L 194.495 174.401 L 209.974 174.392 L 209.974 189.44 L 194.495 189.435 L 194.495 189.43 Z M 206.383 229.247 L 206.383 197.468 L 213.981 197.468 C 214 197.468 214.01 197.458 214.03 197.458 L 221.236 197.438 L 221.236 229.246 L 206.383 229.247 Z M 217.982 266.241 L 221.299 269.935 L 221.299 287.429 L 217.982 287.429 L 217.982 266.241 Z M 241.411 279.053 L 241.411 260.806 L 248.147 260.806 L 241.411 279.053 Z M 263.772 218.449 L 263.772 202.559 L 269.638 202.559 L 263.772 218.449 Z M 272.593 194.551 L 259.771 194.551 C 257.564 194.551 255.769 196.346 255.769 198.553 L 255.764 236.843 C 255.764 237.454 256.165 237.875 256.405 238.408 L 251.102 252.796 L 237.4 252.796 C 235.193 252.796 233.398 254.591 233.398 256.798 L 233.398 298.958 L 218.262 298.958 L 218.262 295.44 L 225.301 295.44 C 227.508 295.44 229.303 293.645 229.303 291.439 L 229.303 268.401 C 229.303 267.413 228.941 266.464 228.29 265.725 L 219.597 256.029 L 228.026 248.192 C 228.838 247.429 229.308 246.357 229.308 245.251 L 229.308 233.77 C 229.308 233.647 229.186 233.549 229.171 233.427 C 229.171 233.368 229.249 233.315 229.249 233.236 L 229.249 197.426 L 237.228 197.426 C 237.678 197.426 238.133 197.348 238.574 197.191 C 255.868 191.056 270.71 180.738 282.505 167.716 L 272.593 194.551 Z M 236.518 189.429 L 229.248 189.429 L 229.248 174.38 L 233 174.38 C 233.514 174.38 234.032 174.287 234.517 174.082 C 261.261 163.153 280.649 139.098 286.016 110.924 L 301.314 110.924 C 295.551 147.013 271.061 176.914 236.518 189.429 Z M 301.852 102.912 L 286.975 102.912 L 286.975 87.644 L 301.916 87.644 L 301.852 102.912 Z M 194.494 -15.531 L 209.972 -15.531 L 209.972 -13.202 C 207.404 -13.378 204.84 -13.564 202.243 -13.564 C 199.635 -13.564 197.052 -13.388 194.484 -13.202 L 194.489 -15.531 L 194.494 -15.531 Z M 202.248 -5.556 C 252.074 -5.556 294.205 31.145 301.425 79.645 L 297.795 79.645 C 290.384 32.945 249.877 -2.019 202.248 -2.019 C 154.662 -2.019 114.077 32.965 106.651 79.645 L 103.163 79.645 C 110.623 30.89 152.504 -5.556 202.247 -5.556 L 202.248 -5.556 Z M 117.086 87.654 L 117.086 102.922 L 102.258 102.922 L 102.136 87.654 L 117.086 87.654 Z M 114.361 110.921 L 103.633 113.89 C 103.442 112.902 103.29 111.909 103.134 110.921 L 114.361 110.921 Z M 144.824 110.774 C 144.844 110.769 144.844 110.75 144.853 110.75 C 144.917 110.74 144.976 110.74 145.025 110.72 L 164.931 104.111 C 165.181 105.089 165.43 106.048 165.763 107.007 L 87.631 142.255 L 72.851 130.73 L 144.824 110.774 Z M 68.136 137.197 L 82.117 148.091 L 82.117 160.836 L 68.136 160.836 L 68.136 137.197 Z" style="fill: rgb(255, 255, 255);" transform="matrix(0, 1, -1, 0, 332.378494, -48.938499)"/>
</svg>